<svg width="1024" height="1024" viewBox="0 0 512 512" xmlns="http://www.w3.org/2000/svg">
  <!-- Android adaptive-icon foreground: Butter's face only, transparent background,
       scaled into the adaptive safe zone (~62% centre). The OS composites this over
       adaptiveIcon.backgroundColor (#F5C45E). Rasterized by scripts/gen-icons.mjs. -->
  <g transform="translate(52,101) scale(1.7)">
    <circle cx="72" cy="50" r="27" fill="#EBD2A8"/>
    <circle cx="168" cy="50" r="27" fill="#EBD2A8"/>
    <ellipse cx="72" cy="54" rx="13" ry="13" fill="#F7E9CF"/>
    <ellipse cx="168" cy="54" rx="13" ry="13" fill="#F7E9CF"/>
    <ellipse cx="120" cy="92" rx="72" ry="68" fill="#EBD2A8"/>
    <ellipse cx="120" cy="118" rx="30" ry="23" fill="#F7E9CF"/>
    <ellipse cx="80" cy="120" rx="13" ry="8.5" fill="#F4A6A0" opacity="0.75"/>
    <ellipse cx="160" cy="120" rx="13" ry="8.5" fill="#F4A6A0" opacity="0.75"/>
    <circle cx="96" cy="96" r="8" fill="#43321F"/><circle cx="144" cy="96" r="8" fill="#43321F"/>
    <circle cx="93" cy="91" r="2.6" fill="#FFFFFF"/><circle cx="141" cy="91" r="2.6" fill="#FFFFFF"/>
    <ellipse cx="120" cy="108" rx="6" ry="4.6" fill="#6B4A33"/>
    <path d="M120,112 L120,117" stroke="#43321F" stroke-width="2.4" fill="none" stroke-linecap="round"/>
    <path d="M120,117 Q112,124 106,117" stroke="#43321F" stroke-width="2.4" fill="none" stroke-linecap="round"/>
    <path d="M120,117 Q128,124 134,117" stroke="#43321F" stroke-width="2.4" fill="none" stroke-linecap="round"/>
  </g>
</svg>
