<svg viewBox="0 0 240 260" xmlns="http://www.w3.org/2000/svg">

  <circle cx="78" cy="58" r="26" fill="#EBD2A8"/>
  <circle cx="162" cy="58" r="26" fill="#EBD2A8"/>
  <circle cx="78" cy="61" r="14" fill="#F7E9CF"/>
  <circle cx="162" cy="61" r="14" fill="#F7E9CF"/>
  <ellipse cx="120" cy="184" rx="66" ry="60" fill="#EBD2A8"/>
  <ellipse cx="86" cy="233" rx="25" ry="15" fill="#EBD2A8"/>
  <ellipse cx="154" cy="233" rx="25" ry="15" fill="#EBD2A8"/>
  <ellipse cx="86" cy="235" rx="12" ry="7" fill="#F7E9CF"/>
  <ellipse cx="154" cy="235" rx="12" ry="7" fill="#F7E9CF"/>
  <ellipse cx="120" cy="194" rx="42" ry="42" fill="#F7E9CF"/>
  <ellipse cx="70" cy="200" rx="16" ry="22" fill="#EBD2A8" transform="rotate(22 70 200)"/>
  <ellipse cx="170" cy="200" rx="16" ry="22" fill="#EBD2A8" transform="rotate(-22 170 200)"/>
  <circle cx="120" cy="94" r="66" fill="#EBD2A8"/>
  <ellipse cx="120" cy="116" rx="31" ry="24" fill="#F7E9CF"/>
  <ellipse cx="80" cy="118" rx="13" ry="8" fill="#F4A6A0" opacity="0.7"/>
  <ellipse cx="160" cy="118" rx="13" ry="8" fill="#F4A6A0" opacity="0.7"/>
  <ellipse cx="120" cy="106" rx="8.5" ry="6.5" fill="#6B4A33"/><circle cx="96" cy="92" r="8" fill="#43321F"/><circle cx="144" cy="92" r="8" fill="#43321F"/><circle cx="93" cy="86" r="2.6" fill="#FFFFFF"/><circle cx="141" cy="86" r="2.6" fill="#FFFFFF"/><path d="M104,118 Q120,135 136,118 Q120,126 104,118 Z" fill="#7A4F37"/><ellipse cx="120" cy="125" rx="7" ry="3.4" fill="#F4A6A0"/>
<g>
  <path d="M68,150 Q120,176 172,150 L172,167 Q120,193 68,167 Z" fill="#E8736A"/>
  <path d="M68,158 Q120,184 172,158" stroke="#C85A52" stroke-width="2" fill="none"/>
  <path d="M96,166 L118,160 L122,206 L100,210 Z" fill="#E8736A"/>
  <path d="M100,210 L122,206 L121,216 L116,212 L111,217 L106,212 L101,216 Z" fill="#C85A52"/>
</g>

<g>
  <circle cx="96" cy="92" r="15" fill="#FFFFFF" fill-opacity="0.25" stroke="#5A4632" stroke-width="3"/>
  <circle cx="144" cy="92" r="15" fill="#FFFFFF" fill-opacity="0.25" stroke="#5A4632" stroke-width="3"/>
  <path d="M111,90 Q120,86 129,90" stroke="#5A4632" stroke-width="3" fill="none" stroke-linecap="round"/>
  <path d="M81,90 L62,86" stroke="#5A4632" stroke-width="3" stroke-linecap="round"/>
  <path d="M159,90 L178,86" stroke="#5A4632" stroke-width="3" stroke-linecap="round"/>
</g>

<g transform="rotate(-8 120 48)">
  <path d="M120,6 L94,50 L146,50 Z" fill="#F5C45E"/>
  <path d="M104,33 L116,33 L112,45 L100,45 Z" fill="#A8D8C8"/>
  <path d="M120,18 L130,18 L126,28 L116,28 Z" fill="#F4A6A0"/>
  <ellipse cx="120" cy="50" rx="28" ry="6" fill="#E8A87C"/>
  <circle cx="120" cy="6" r="8" fill="#F4A6A0"/></g>

</svg>
