<svg viewBox="0 0 240 260" xmlns="http://www.w3.org/2000/svg">

  <circle cx="78" cy="58" r="26" fill="#EBD2A8"/>
  <circle cx="162" cy="58" r="26" fill="#EBD2A8"/>
  <circle cx="78" cy="61" r="14" fill="#F7E9CF"/>
  <circle cx="162" cy="61" r="14" fill="#F7E9CF"/>
  <ellipse cx="120" cy="184" rx="66" ry="60" fill="#EBD2A8"/>
  <ellipse cx="86" cy="233" rx="25" ry="15" fill="#EBD2A8"/>
  <ellipse cx="154" cy="233" rx="25" ry="15" fill="#EBD2A8"/>
  <ellipse cx="86" cy="235" rx="12" ry="7" fill="#F7E9CF"/>
  <ellipse cx="154" cy="235" rx="12" ry="7" fill="#F7E9CF"/>
  <ellipse cx="120" cy="194" rx="42" ry="42" fill="#F7E9CF"/>
  <ellipse cx="58" cy="150" rx="15" ry="27" fill="#EBD2A8" transform="rotate(-32 58 150)"/>
  <ellipse cx="182" cy="150" rx="15" ry="27" fill="#EBD2A8" transform="rotate(32 182 150)"/>
  <circle cx="120" cy="94" r="66" fill="#EBD2A8"/>
  <ellipse cx="120" cy="116" rx="31" ry="24" fill="#F7E9CF"/>
  <ellipse cx="80" cy="118" rx="13" ry="8" fill="#F4A6A0" opacity="0.7"/>
  <ellipse cx="160" cy="118" rx="13" ry="8" fill="#F4A6A0" opacity="0.7"/>
  <ellipse cx="120" cy="106" rx="8.5" ry="6.5" fill="#6B4A33"/><circle cx="96" cy="92" r="8" fill="#43321F"/><circle cx="144" cy="92" r="8" fill="#43321F"/><circle cx="93" cy="86" r="2.6" fill="#FFFFFF"/><circle cx="141" cy="86" r="2.6" fill="#FFFFFF"/><path d="M100,114 Q120,141 140,114 Q120,124 100,114 Z" fill="#7A4F37"/><ellipse cx="120" cy="127" rx="8" ry="4" fill="#F4A6A0"/><polygon points="46.0,57.0 43.9,61.9 39.0,64.0 43.9,66.1 46.0,71.0 48.1,66.1 53.0,64.0 48.1,61.9" fill="#F5C45E"/><polygon points="198.0,63.0 195.9,67.9 191.0,70.0 195.9,72.1 198.0,77.0 200.1,72.1 205.0,70.0 200.1,67.9" fill="#A8D8C8"/><circle cx="102" cy="54" r="4" fill="#E8A87C"/><rect x="38" y="226" width="9" height="6" rx="2" fill="#E8736A" transform="rotate(74 38 226)"/><rect x="34" y="145" width="9" height="6" rx="2" fill="#A8D8C8" transform="rotate(55 34 145)"/><rect x="127" y="33" width="9" height="6" rx="2" fill="#A8D8C8" transform="rotate(54 127 33)"/><rect x="35" y="227" width="9" height="6" rx="2" fill="#E8736A" transform="rotate(28 35 227)"/><circle cx="181" cy="176" r="4" fill="#E8736A"/><rect x="167" y="165" width="9" height="6" rx="2" fill="#E8A87C" transform="rotate(28 167 165)"/><rect x="31" y="158" width="9" height="6" rx="2" fill="#A8D8C8" transform="rotate(18 31 158)"/><rect x="158" y="46" width="9" height="6" rx="2" fill="#E8736A" transform="rotate(23 158 46)"/><circle cx="46" cy="164" r="4" fill="#E8736A"/><circle cx="115" cy="40" r="4" fill="#E8736A"/>
</svg>
