<svg viewBox="0 0 240 260" xmlns="http://www.w3.org/2000/svg">

  <circle cx="78" cy="58" r="26" fill="#EBD2A8"/>
  <circle cx="162" cy="58" r="26" fill="#EBD2A8"/>
  <circle cx="78" cy="61" r="14" fill="#F7E9CF"/>
  <circle cx="162" cy="61" r="14" fill="#F7E9CF"/>
  <ellipse cx="120" cy="184" rx="66" ry="60" fill="#EBD2A8"/>
  <ellipse cx="86" cy="233" rx="25" ry="15" fill="#EBD2A8"/>
  <ellipse cx="154" cy="233" rx="25" ry="15" fill="#EBD2A8"/>
  <ellipse cx="86" cy="235" rx="12" ry="7" fill="#F7E9CF"/>
  <ellipse cx="154" cy="235" rx="12" ry="7" fill="#F7E9CF"/>
  <ellipse cx="120" cy="194" rx="42" ry="42" fill="#F7E9CF"/>
  <ellipse cx="58" cy="150" rx="15" ry="27" fill="#EBD2A8" transform="rotate(-32 58 150)"/>
  <ellipse cx="182" cy="150" rx="15" ry="27" fill="#EBD2A8" transform="rotate(32 182 150)"/>
  <circle cx="120" cy="94" r="66" fill="#EBD2A8"/>
  <ellipse cx="120" cy="116" rx="31" ry="24" fill="#F7E9CF"/>
  <ellipse cx="80" cy="118" rx="13" ry="8" fill="#F4A6A0" opacity="0.7"/>
  <ellipse cx="160" cy="118" rx="13" ry="8" fill="#F4A6A0" opacity="0.7"/>
  <ellipse cx="120" cy="106" rx="8.5" ry="6.5" fill="#6B4A33"/><circle cx="94" cy="90" r="10.5" fill="#43321F"/><circle cx="146" cy="90" r="10.5" fill="#43321F"/><circle cx="90" cy="86" r="4.2" fill="#FFFFFF"/><circle cx="142" cy="86" r="4.2" fill="#FFFFFF"/><circle cx="97" cy="93" r="1.8" fill="#FFFFFF"/><circle cx="149" cy="93" r="1.8" fill="#FFFFFF"/><path d="M100,114 Q120,141 140,114 Q120,124 100,114 Z" fill="#7A4F37"/><ellipse cx="120" cy="127" rx="8" ry="4" fill="#F4A6A0"/><polygon points="40.0,63.0 37.9,67.9 33.0,70.0 37.9,72.1 40.0,77.0 42.1,72.1 47.0,70.0 42.1,67.9" fill="#F5C45E"/><polygon points="205.0,68.0 202.6,73.6 197.0,76.0 202.6,78.4 205.0,84.0 207.4,78.4 213.0,76.0 207.4,73.6" fill="#A8D8C8"/><polygon points="150.0,20.0 148.2,24.2 144.0,26.0 148.2,27.8 150.0,32.0 151.8,27.8 156.0,26.0 151.8,24.2" fill="#F5C45E"/><polygon points="58.0,23.0 56.5,26.5 53.0,28.0 56.5,29.5 58.0,33.0 59.5,29.5 63.0,28.0 59.5,26.5" fill="#A8D8C8"/>
</svg>
