<svg viewBox="0 0 240 260" xmlns="http://www.w3.org/2000/svg">

  <circle cx="78" cy="58" r="26" fill="#EBD2A8"/>
  <circle cx="162" cy="58" r="26" fill="#EBD2A8"/>
  <circle cx="78" cy="61" r="14" fill="#F7E9CF"/>
  <circle cx="162" cy="61" r="14" fill="#F7E9CF"/>
  <ellipse cx="120" cy="184" rx="66" ry="60" fill="#EBD2A8"/>
  <ellipse cx="86" cy="233" rx="25" ry="15" fill="#EBD2A8"/>
  <ellipse cx="154" cy="233" rx="25" ry="15" fill="#EBD2A8"/>
  <ellipse cx="86" cy="235" rx="12" ry="7" fill="#F7E9CF"/>
  <ellipse cx="154" cy="235" rx="12" ry="7" fill="#F7E9CF"/>
  <ellipse cx="120" cy="194" rx="42" ry="42" fill="#F7E9CF"/>
  <ellipse cx="70" cy="200" rx="16" ry="22" fill="#EBD2A8" transform="rotate(22 70 200)"/>
  <ellipse cx="170" cy="200" rx="16" ry="22" fill="#EBD2A8" transform="rotate(-22 170 200)"/>
  <circle cx="120" cy="94" r="66" fill="#EBD2A8"/>
  <ellipse cx="120" cy="116" rx="31" ry="24" fill="#F7E9CF"/>
  <ellipse cx="80" cy="118" rx="13" ry="8" fill="#F4A6A0" opacity="0.7"/>
  <ellipse cx="160" cy="118" rx="13" ry="8" fill="#F4A6A0" opacity="0.7"/>
  <ellipse cx="120" cy="106" rx="8.5" ry="6.5" fill="#6B4A33"/><path d="M86,90 Q96,99 106,90" stroke="#43321F" stroke-width="3.6" fill="none" stroke-linecap="round"/><path d="M134,90 Q144,99 154,90" stroke="#43321F" stroke-width="3.6" fill="none" stroke-linecap="round"/><path d="M108,119 Q120,129 132,119" stroke="#43321F" stroke-width="3" fill="none" stroke-linecap="round"/>
</svg>
