<svg viewBox="0 0 240 260" xmlns="http://www.w3.org/2000/svg">

  <circle cx="78" cy="58" r="26" fill="#EBD2A8"/>
  <circle cx="162" cy="58" r="26" fill="#EBD2A8"/>
  <circle cx="78" cy="61" r="14" fill="#F7E9CF"/>
  <circle cx="162" cy="61" r="14" fill="#F7E9CF"/>
  <ellipse cx="120" cy="184" rx="66" ry="60" fill="#EBD2A8"/>
  <ellipse cx="86" cy="233" rx="25" ry="15" fill="#EBD2A8"/>
  <ellipse cx="154" cy="233" rx="25" ry="15" fill="#EBD2A8"/>
  <ellipse cx="86" cy="235" rx="12" ry="7" fill="#F7E9CF"/>
  <ellipse cx="154" cy="235" rx="12" ry="7" fill="#F7E9CF"/>
  <ellipse cx="120" cy="194" rx="42" ry="42" fill="#F7E9CF"/>
  <ellipse cx="70" cy="200" rx="16" ry="22" fill="#EBD2A8" transform="rotate(22 70 200)"/>
  <ellipse cx="170" cy="200" rx="16" ry="22" fill="#EBD2A8" transform="rotate(-22 170 200)"/>
  <circle cx="120" cy="94" r="66" fill="#EBD2A8"/>
  <ellipse cx="120" cy="116" rx="31" ry="24" fill="#F7E9CF"/>
  <ellipse cx="80" cy="118" rx="13" ry="8" fill="#F4A6A0" opacity="0.7"/>
  <ellipse cx="160" cy="118" rx="13" ry="8" fill="#F4A6A0" opacity="0.7"/>
  <ellipse cx="120" cy="106" rx="8.5" ry="6.5" fill="#6B4A33"/><circle cx="96" cy="95" r="6.2" fill="#43321F"/><circle cx="144" cy="95" r="6.2" fill="#43321F"/><circle cx="96" cy="92" r="2" fill="#FFFFFF"/><circle cx="144" cy="92" r="2" fill="#FFFFFF"/><path d="M84,84 L104,78" stroke="#5A4632" stroke-width="3" stroke-linecap="round"/><path d="M156,84 L136,78" stroke="#5A4632" stroke-width="3" stroke-linecap="round"/><path d="M110,123 Q116,118 120,123 Q124,128 130,123" stroke="#43321F" stroke-width="2.6" fill="none" stroke-linecap="round"/><path d="M168,72 q7,9 0,16 q-7,-7 0,-16 z" fill="#9FD0E0"/><circle cx="166" cy="79" r="1.8" fill="#FFFFFF" opacity="0.8"/>
</svg>
